# Blender v2.69 (sub 0) OBJ File: 'omino.blend'
# www.blender.org
mtllib omino.mtl
o Omino
v 0.207112 -0.110595 1.020281
v 0.207112 -0.110595 1.344621
v -0.207289 -0.110595 1.344621
v -0.207289 -0.110595 1.020281
v 0.207112 0.159168 1.020281
v 0.207112 0.159168 1.344621
v -0.207289 0.159168 1.344621
v -0.207289 0.159168 1.020281
v 0.158710 -0.088933 1.008534
v -0.158888 -0.088933 1.008534
v 0.158710 0.088933 1.008534
v -0.158888 0.088933 1.008534
v 0.258286 -0.123116 0.310636
v -0.258463 -0.123116 0.310636
v 0.258286 0.123117 0.310636
v -0.258463 0.123117 0.310636
v 0.295848 -0.118036 0.236237
v -0.296025 -0.118036 0.236237
v 0.295848 0.118036 0.236237
v -0.296025 0.118036 0.236237
v 0.295848 -0.126471 -0.238621
v -0.296025 -0.126471 -0.238621
v 0.295848 0.126472 -0.238621
v -0.296025 0.126472 -0.238621
v 0.105179 -0.069374 -0.354406
v -0.097198 -0.069374 -0.354406
v 0.105179 0.069374 -0.354405
v -0.097198 0.069374 -0.354406
v 0.163639 -0.085577 -0.509503
v -0.163816 -0.085577 -0.509503
v 0.163639 0.085578 -0.509503
v -0.163816 0.085578 -0.509503
v -0.135022 0.104646 -0.638663
v 0.134846 0.104646 -0.638663
v -0.135022 -0.104645 -0.638663
v 0.134846 -0.104645 -0.638663
v -0.000088 0.000000 -0.721839
vt 1.791652 0.254946
vt 1.791652 0.849431
vt 1.031791 0.254946
vt 1.626276 0.849432
vt 1.626276 1.609293
vt 1.031791 0.849432
vt 0.780331 2.345685
vt 0.197972 2.345685
vt 0.962916 1.068267
vt 2.120137 1.344079
vt 2.120137 2.091157
vt 2.079266 1.427818
vt 1.626276 2.096247
vt 1.626276 1.349169
vt 1.753643 2.003736
vt 2.039210 -0.202707
vt 2.039210 0.248794
vt 1.894896 -0.193392
vt 2.964862 2.597145
vt 2.964862 3.179504
vt 1.687443 2.414560
vt 2.468191 -0.224326
vt 2.468191 -0.657197
vt 3.332134 -0.208859
vt 0.015387 1.068267
vt 1.031791 0.931639
vt 1.687443 3.362088
vt 1.550815 2.345685
vt 2.324258 -0.215011
vt 2.324258 -0.666512
vt 2.614785 2.270266
vt 2.614785 1.807172
vt 2.919664 1.926812
vt 1.894896 0.239479
vt 1.031791 -0.208859
vt -0.053488 0.931639
vt 1.031791 0.061703
vt 1.550815 3.430963
vt 0.680880 2.345685
vt 2.286299 0.784757
vt 2.286299 0.530344
vt 2.581825 0.500632
vt 3.012047 1.344079
vt 3.012047 1.807173
vt 2.614785 1.456482
vt -0.053488 0.061703
vt 0.296130 -0.153467
vt 0.680880 3.430963
vt 0.465709 2.695302
vt 1.626276 1.673968
vt 1.626276 1.928381
vt 1.328253 1.958093
vt 0.667215 -0.153468
vt 0.789368 -0.436911
vt 0.465709 3.066387
vt 0.182266 3.188541
vt 0.182266 2.588107
vt -0.053488 2.640904
vt 0.188935 -0.436910
vt 0.736571 -0.672664
vt 1.328253 1.644256
vt 1.100457 1.609293
vt 2.581825 0.814469
vt 2.810242 0.465668
vt 2.386137 1.344079
vt 2.386137 0.857565
vt 2.586307 1.126661
vt 2.769291 0.853616
vt 2.769291 1.340130
vt 1.031791 1.609293
vt 2.079266 2.000379
vt 1.753643 1.431174
vt 3.332134 -0.672664
vt 2.919664 2.180835
vt 2.614785 1.710505
vt -0.053488 3.135743
vt 0.241732 -0.672663
vt 1.100457 1.993056
vt 2.810242 0.849432
vt 2.286299 0.849432
vt 1.791652 0.849432
vt 1.791652 0.259338
vt 1.626276 1.344079
vt 2.614784 1.344079
vt 2.120137 1.933602
vt 1.031791 -0.277691
vt 1.031791 -0.603831
vt 3.331805 -0.140027
vt 3.331805 0.186113
vt 2.286299 0.259338
vt 2.386137 0.849432
vt 2.614784 1.933601
vn 0.000000 -1.000000 0.000000
vn 0.000000 1.000000 0.000000
vn -0.000000 0.998803 0.048922
vn 0.000000 -0.476696 -0.879068
vn 0.000001 0.164964 -0.986300
vn -0.892680 -0.000000 0.450692
vn 0.000000 -0.998803 0.048922
vn 1.000000 -0.000001 0.000000
vn 0.000000 0.997677 -0.068125
vn 0.000000 -0.997677 -0.068126
vn 0.892679 -0.000000 0.450693
vn 0.519047 0.000000 -0.854746
vn -1.000000 -0.000000 -0.000000
vn -0.000000 0.999842 0.017761
vn 0.000000 -0.999842 0.017761
vn 0.935735 -0.000001 0.352705
vn -0.503229 -0.000000 -0.864153
vn 0.000000 0.896876 -0.442283
vn 0.000000 -0.896876 -0.442282
vn -0.918828 -0.000000 0.394658
vn -0.000000 0.994587 0.103909
vn 0.000000 -0.994587 0.103907
vn 0.000000 -0.989278 0.146047
vn -0.000000 0.989278 0.146047
vn -0.976040 0.000000 -0.217589
vn 0.976040 -0.000000 -0.217589
vn 0.000000 -0.622227 -0.782837
vn 0.000001 0.622228 -0.782836
vn -0.524737 -0.000000 -0.851264
vn 0.524738 0.000001 -0.851264
vn 0.000000 -0.476697 -0.879068
vn 0.000001 0.164965 -0.986300
vn -0.892680 -0.000001 0.450691
vn 1.000000 -0.000000 0.000000
vn 0.000000 0.997677 -0.068126
vn 0.000000 -0.997677 -0.068125
vn 0.892680 -0.000001 0.450691
vn 0.519045 0.000002 -0.854747
vn 0.000001 0.896877 -0.442281
vn -0.976040 -0.000000 -0.217590
vn 0.976040 0.000000 -0.217590
vn 1.000000 -0.000000 0.000001
vn 0.000000 -0.000001 1.000000
vn -0.235853 -0.000000 -0.971789
vn 0.235854 0.000001 -0.971789
vn 0.989974 -0.000000 0.141249
vn -0.989974 -0.000000 0.141248
vn 1.000000 0.000001 0.000000
vn -0.000001 -0.000000 1.000000
vn -0.235850 0.000000 -0.971789
vn 0.235850 0.000001 -0.971789
usemtl Material
s off
f 1/1/1 2/2/1 4/3/1
f 5/4/2 8/5/2 6/6/2
f 12/7/3 11/8/3 16/9/3
f 1/10/4 4/11/4 9/12/4
f 8/13/5 5/14/5 12/15/5
f 14/16/6 16/17/6 18/18/6
f 9/19/7 10/20/7 13/21/7
f 19/22/8 17/23/8 23/24/8
f 16/9/9 15/25/9 20/26/9
f 13/21/10 14/27/10 17/28/10
f 15/29/11 13/30/11 19/22/11
f 23/31/12 21/32/12 25/33/12
f 18/18/13 20/34/13 22/35/13
f 20/26/14 19/36/14 24/37/14
f 17/28/15 18/38/15 21/39/15
f 27/40/16 25/41/16 29/42/16
f 22/43/17 24/44/17 26/45/17
f 24/37/18 23/46/18 27/47/18
f 21/39/19 22/48/19 25/49/19
f 26/50/20 28/51/20 32/52/20
f 28/53/21 27/47/21 32/54/21
f 25/49/22 26/55/22 30/56/22
f 29/57/23 30/56/23 36/58/23
f 32/54/24 31/59/24 33/60/24
f 30/61/25 32/52/25 35/62/25
f 31/63/26 29/42/26 36/64/26
f 36/65/27 35/66/27 37/67/27
f 33/68/28 34/69/28 37/67/28
f 35/66/29 33/68/29 37/67/29
f 34/69/30 36/65/30 37/67/30
f 2/2/1 3/6/1 4/3/1
f 8/5/2 7/70/2 6/6/2
f 11/8/3 15/25/3 16/9/3
f 4/11/31 10/71/31 9/12/31
f 5/14/32 11/72/32 12/15/32
f 16/17/33 20/34/33 18/18/33
f 10/20/7 14/27/7 13/21/7
f 17/23/34 21/73/34 23/24/34
f 15/25/35 19/36/35 20/26/35
f 14/27/36 18/38/36 17/28/36
f 13/30/37 17/23/37 19/22/37
f 27/74/38 23/31/38 25/33/38
f 20/34/13 24/3/13 22/35/13
f 19/36/14 23/46/14 24/37/14
f 18/38/15 22/48/15 21/39/15
f 31/63/16 27/40/16 29/42/16
f 24/44/17 28/75/17 26/45/17
f 28/53/39 24/37/39 27/47/39
f 22/48/19 26/55/19 25/49/19
f 30/61/20 26/50/20 32/52/20
f 27/47/21 31/59/21 32/54/21
f 29/57/22 25/49/22 30/56/22
f 30/56/23 35/76/23 36/58/23
f 31/59/24 34/77/24 33/60/24
f 32/52/40 33/78/40 35/62/40
f 34/79/41 31/63/41 36/64/41
usemtl Material.001
f 1/80/42 5/81/42 6/82/42
f 2/83/43 6/4/43 3/65/43
f 3/10/13 7/84/13 4/85/13
f 4/11/44 8/13/44 10/71/44
f 5/14/45 1/10/45 9/12/45
f 11/86/46 9/87/46 15/29/46
f 10/88/47 12/89/47 14/16/47
f 2/90/48 1/80/48 6/82/48
f 6/4/49 7/91/49 3/65/49
f 7/84/13 8/92/13 4/85/13
f 8/13/50 12/15/50 10/71/50
f 11/72/51 5/14/51 9/12/51
f 9/87/46 13/30/46 15/29/46
f 12/89/47 16/17/47 14/16/47
