# Blender v2.69 (sub 0) OBJ File: 'omino.blend'
# www.blender.org
mtllib omino.mtl
o Omino_blu
v 0.006252 0.011708 -0.057678
v 0.006252 0.011708 -0.076013
v 0.006252 -0.011718 -0.076013
v 0.006252 -0.011718 -0.057678
v -0.008998 0.011708 -0.057678
v -0.008998 0.011708 -0.076013
v -0.008998 -0.011718 -0.076013
v -0.008998 -0.011718 -0.057678
v 0.005027 0.008972 -0.057014
v 0.005027 -0.008982 -0.057014
v -0.005028 0.008972 -0.057014
v -0.005028 -0.008982 -0.057014
v 0.006960 0.014601 -0.017561
v 0.006960 -0.014611 -0.017561
v -0.006960 0.014601 -0.017561
v -0.006960 -0.014611 -0.017561
v 0.006673 0.016725 -0.013355
v 0.006673 -0.016735 -0.013355
v -0.006673 0.016725 -0.013355
v -0.006673 -0.016735 -0.013355
v 0.007150 0.016725 0.013490
v 0.007150 -0.016735 0.013490
v -0.007150 0.016725 0.013490
v -0.007150 -0.016735 0.013490
v 0.003922 0.005946 0.020035
v 0.003922 -0.005495 0.020035
v -0.003922 0.005946 0.020035
v -0.003922 -0.005495 0.020035
v 0.004838 0.009251 0.028803
v 0.004838 -0.009261 0.028803
v -0.004838 0.009251 0.028803
v -0.004838 -0.009261 0.028803
v -0.005916 -0.007633 0.036105
v -0.005916 0.007623 0.036105
v 0.005916 -0.007633 0.036105
v 0.005916 0.007623 0.036105
v 0.000000 -0.000005 0.040807
vt 1.791652 0.254946
vt 1.791652 0.849431
vt 1.031791 0.254946
vt 1.626276 0.849432
vt 1.626276 1.609293
vt 1.031791 0.849432
vt 2.286299 0.849432
vt 1.791652 0.849432
vt 2.286299 0.259338
vt 1.626276 1.344079
vt 2.386137 1.344079
vt 2.120137 1.344079
vt 2.614784 1.344079
vt 2.120137 1.933602
vt 2.120137 2.091157
vt 1.626276 2.096247
vt 2.079266 2.000379
vt 0.780331 2.345685
vt 0.197972 2.345685
vt 0.962916 1.068267
vt 2.079266 1.427818
vt 1.626276 1.349169
vt 1.753643 2.003736
vt 2.039210 -0.202707
vt 2.039210 0.248794
vt 1.894896 -0.193392
vt 2.964862 2.597145
vt 2.964862 3.179504
vt 1.687443 2.414560
vt 1.031791 -0.277691
vt 1.031791 -0.603831
vt 2.324258 -0.215011
vt 3.331805 -0.140027
vt 3.331805 0.186113
vt 2.468191 -0.224326
vt 2.468191 -0.657197
vt 3.332134 -0.208859
vt 0.015387 1.068267
vt 1.031791 0.931639
vt 1.687443 3.362088
vt 1.550815 2.345685
vt 2.324258 -0.666512
vt 2.614785 2.270266
vt 2.614785 1.807172
vt 2.919664 1.926812
vt 1.894896 0.239479
vt 1.031791 -0.208859
vt -0.053488 0.931639
vt 1.031791 0.061703
vt 1.550815 3.430963
vt 0.680880 2.345685
vt 2.286299 0.784757
vt 2.286299 0.530344
vt 2.581825 0.500632
vt 3.012047 1.344079
vt 3.012047 1.807173
vt 2.614785 1.456482
vt -0.053488 0.061703
vt 0.296130 -0.153467
vt 0.680880 3.430963
vt 0.465709 2.695302
vt 1.626276 1.673968
vt 1.626276 1.928381
vt 1.328253 1.958093
vt 0.667215 -0.153468
vt 0.789368 -0.436911
vt 0.465709 3.066387
vt 0.182266 3.188541
vt 0.182266 2.588107
vt -0.053488 2.640904
vt 0.188935 -0.436910
vt 0.736571 -0.672664
vt 1.328253 1.644256
vt 1.100457 1.609293
vt 2.581825 0.814469
vt 2.810242 0.465668
vt 2.386137 0.857565
vt 2.586307 1.126661
vt 2.769291 0.853616
vt 2.769291 1.340130
vt 1.031791 1.609293
vt 1.791652 0.259338
vt 2.386137 0.849432
vt 2.614784 1.933601
vt 1.753643 1.431174
vt 3.332134 -0.672664
vt 2.919664 2.180835
vt 2.614785 1.710505
vt -0.053488 3.135743
vt 0.241732 -0.672663
vt 1.100457 1.993056
vt 2.810242 0.849432
vn -1.000000 -0.000001 0.000001
vn 1.000000 0.000001 -0.000001
vn 0.000000 -1.000000 0.000000
vn 0.000001 0.000000 1.000000
vn -0.000001 1.000000 -0.000000
vn -0.000001 0.235853 -0.971789
vn 0.998803 0.000001 0.048922
vn -0.476693 -0.000000 -0.879070
vn 0.164964 -0.000000 -0.986300
vn -0.000001 -0.235853 -0.971789
vn -0.000001 0.892680 0.450691
vn -0.998803 -0.000001 0.048922
vn 0.000000 -0.989974 0.141249
vn -0.000001 0.989974 0.141248
vn 0.997677 0.000001 -0.068126
vn -0.997677 -0.000001 -0.068125
vn 0.000000 -0.892680 0.450691
vn 0.000000 -0.519047 -0.854746
vn 0.999842 0.000001 0.017761
vn -0.999842 -0.000001 0.017762
vn -0.000000 -0.935735 0.352705
vn -0.000001 0.503229 -0.864153
vn 0.896876 0.000000 -0.442283
vn -0.896876 -0.000001 -0.442282
vn -0.000000 0.918828 0.394658
vn 0.994587 0.000001 0.103908
vn -0.994587 -0.000001 0.103908
vn -0.989278 -0.000001 0.146047
vn 0.989278 0.000001 0.146046
vn -0.000001 0.976040 -0.217589
vn 0.000000 -0.976040 -0.217589
vn -0.622228 -0.000000 -0.782836
vn 0.622228 -0.000001 -0.782836
vn -0.000001 0.524737 -0.851264
vn 0.000001 -0.524738 -0.851264
vn 0.000001 -1.000000 0.000001
vn 0.000001 0.000001 1.000000
vn -0.000000 0.235853 -0.971789
vn -0.476695 -0.000001 -0.879069
vn 0.164963 -0.000000 -0.986300
vn 0.000000 -0.235854 -0.971789
vn -0.000000 0.892680 0.450691
vn -0.000000 -0.892680 0.450692
vn 0.000001 -0.519045 -0.854747
vn 0.896876 -0.000000 -0.442281
vn 0.000001 -0.976040 -0.217590
usemtl Blu
s off
f 1/1/1 2/2/1 4/3/1
f 5/4/2 8/5/2 6/6/2
f 1/7/3 5/8/3 2/9/3
f 2/10/4 6/4/4 3/11/4
f 3/12/5 7/13/5 4/14/5
f 4/15/6 8/16/6 10/17/6
f 12/18/7 11/19/7 16/20/7
f 1/12/8 4/15/8 9/21/8
f 8/16/9 5/22/9 12/23/9
f 5/22/10 1/12/10 9/21/10
f 14/24/11 16/25/11 18/26/11
f 9/27/12 10/28/12 13/29/12
f 11/30/13 9/31/13 15/32/13
f 10/33/14 12/34/14 14/24/14
f 19/35/3 17/36/3 23/37/3
f 16/20/15 15/38/15 20/39/15
f 13/29/16 14/40/16 17/41/16
f 15/32/17 13/42/17 19/35/17
f 23/43/18 21/44/18 25/45/18
f 18/26/5 20/46/5 22/47/5
f 20/39/19 19/48/19 24/49/19
f 17/41/20 18/50/20 21/51/20
f 27/52/21 25/53/21 29/54/21
f 22/55/22 24/56/22 26/57/22
f 24/49/23 23/58/23 27/59/23
f 21/51/24 22/60/24 25/61/24
f 26/62/25 28/63/25 32/64/25
f 28/65/26 27/59/26 32/66/26
f 25/61/27 26/67/27 30/68/27
f 29/69/28 30/68/28 36/70/28
f 32/66/29 31/71/29 33/72/29
f 30/73/30 32/64/30 35/74/30
f 31/75/31 29/54/31 36/76/31
f 36/11/32 35/77/32 37/78/32
f 33/79/33 34/80/33 37/78/33
f 35/77/34 33/79/34 37/78/34
f 34/80/35 36/11/35 37/78/35
f 2/2/1 3/6/1 4/3/1
f 8/5/2 7/81/2 6/6/2
f 5/8/36 6/82/36 2/9/36
f 6/4/37 7/83/37 3/11/37
f 7/13/5 8/84/5 4/14/5
f 8/16/38 12/23/38 10/17/38
f 11/19/7 15/38/7 16/20/7
f 4/15/39 10/17/39 9/21/39
f 5/22/40 11/85/40 12/23/40
f 11/85/41 5/22/41 9/21/41
f 16/25/42 20/46/42 18/26/42
f 10/28/12 14/40/12 13/29/12
f 9/31/13 13/42/13 15/32/13
f 12/34/14 16/25/14 14/24/14
f 17/36/3 21/86/3 23/37/3
f 15/38/15 19/48/15 20/39/15
f 14/40/16 18/50/16 17/41/16
f 13/42/43 17/36/43 19/35/43
f 27/87/44 23/43/44 25/45/44
f 20/46/5 24/3/5 22/47/5
f 19/48/19 23/58/19 24/49/19
f 18/50/20 22/60/20 21/51/20
f 31/75/21 27/52/21 29/54/21
f 24/56/22 28/88/22 26/57/22
f 28/65/45 24/49/45 27/59/45
f 22/60/24 26/67/24 25/61/24
f 30/73/25 26/62/25 32/64/25
f 27/59/26 31/71/26 32/66/26
f 29/69/27 25/61/27 30/68/27
f 30/68/28 35/89/28 36/70/28
f 31/71/29 34/90/29 33/72/29
f 32/64/30 33/91/30 35/74/30
f 34/92/46 31/75/46 36/76/46
o Stecca
v 0.000000 0.050000 -0.050000
v 0.000000 0.050000 0.050000
v 0.009755 0.049039 -0.050000
v 0.009755 0.049039 0.050000
v 0.019134 0.046194 -0.050000
v 0.019134 0.046194 0.050000
v 0.027779 0.041573 -0.050000
v 0.027779 0.041573 0.050000
v 0.035355 0.035355 -0.050000
v 0.035355 0.035355 0.050000
v 0.041573 0.027779 -0.050000
v 0.041573 0.027779 0.050000
v 0.046194 0.019134 -0.050000
v 0.046194 0.019134 0.050000
v 0.049039 0.009755 -0.050000
v 0.049039 0.009755 0.050000
v 0.050000 0.000000 -0.050000
v 0.050000 0.000000 0.050000
v 0.049039 -0.009755 -0.050000
v 0.049039 -0.009755 0.050000
v 0.046194 -0.019134 -0.050000
v 0.046194 -0.019134 0.050000
v 0.041573 -0.027779 -0.050000
v 0.041573 -0.027779 0.050000
v 0.035355 -0.035355 -0.050000
v 0.035355 -0.035355 0.050000
v 0.027779 -0.041573 -0.050000
v 0.027779 -0.041573 0.050000
v 0.019134 -0.046194 -0.050000
v 0.019134 -0.046194 0.050000
v 0.009755 -0.049039 -0.050000
v 0.009755 -0.049039 0.050000
v -0.000000 -0.050000 -0.050000
v -0.000000 -0.050000 0.050000
v -0.009755 -0.049039 -0.050000
v -0.009755 -0.049039 0.050000
v -0.019134 -0.046194 -0.050000
v -0.019134 -0.046194 0.050000
v -0.027779 -0.041573 -0.050000
v -0.027779 -0.041573 0.050000
v -0.035355 -0.035355 -0.050000
v -0.035355 -0.035355 0.050000
v -0.041574 -0.027778 -0.050000
v -0.041574 -0.027778 0.050000
v -0.046194 -0.019134 -0.050000
v -0.046194 -0.019134 0.050000
v -0.049039 -0.009754 -0.050000
v -0.049039 -0.009754 0.050000
v -0.050000 0.000000 -0.050000
v -0.050000 0.000000 0.050000
v -0.049039 0.009755 -0.050000
v -0.049039 0.009755 0.050000
v -0.046194 0.019134 -0.050000
v -0.046194 0.019134 0.050000
v -0.041573 0.027779 -0.050000
v -0.041573 0.027779 0.050000
v -0.035355 0.035355 -0.050000
v -0.035355 0.035355 0.050000
v -0.027778 0.041574 -0.050000
v -0.027778 0.041574 0.050000
v -0.019134 0.046194 -0.050000
v -0.019134 0.046194 0.050000
v -0.009754 0.049039 -0.050000
v -0.009754 0.049039 0.050000
vn 0.000000 0.000000 1.000000
vn 0.000000 0.000000 -1.000000
vn 0.000001 0.000000 1.000000
vn -0.000001 0.000000 1.000000
vn -0.000002 0.000000 1.000000
vn 0.000001 0.000000 -1.000000
vn -0.000001 0.000000 -1.000000
vn -0.000002 0.000000 -1.000000
vn 0.000003 0.000000 -1.000000
vn 0.000000 1.000000 0.000000
vn 0.195090 0.980785 0.000000
vn 0.382683 0.923880 0.000000
vn 0.555570 0.831470 0.000000
vn 0.707107 0.707107 0.000000
vn 0.707106 0.707107 0.000000
vn 0.831470 0.555570 0.000000
vn 0.831469 0.555570 0.000000
vn 0.923880 0.382683 0.000000
vn 0.923879 0.382684 0.000000
vn 0.980785 0.195090 0.000000
vn 0.980785 0.195091 0.000000
vn 1.000000 0.000000 0.000000
vn 0.980785 -0.195091 0.000000
vn 0.980785 -0.195090 0.000000
vn 0.923880 -0.382684 0.000000
vn 0.923880 -0.382683 0.000000
vn 0.831470 -0.555570 0.000000
vn 0.707107 -0.707107 0.000000
vn 0.555570 -0.831470 0.000000
vn 0.382683 -0.923880 0.000000
vn 0.195090 -0.980785 0.000000
vn -0.000000 -1.000000 0.000000
vn -0.195091 -0.980785 0.000000
vn -0.382684 -0.923879 0.000000
vn -0.555571 -0.831469 0.000000
vn -0.707107 -0.707106 0.000000
vn -0.831470 -0.555569 0.000000
vn -0.831470 -0.555570 0.000000
vn -0.923880 -0.382682 0.000000
vn -0.923880 -0.382683 0.000000
vn -0.980785 -0.195089 0.000000
vn -1.000000 0.000001 0.000000
vn -0.980785 0.195092 0.000000
vn -0.980785 0.195091 0.000000
vn -0.923879 0.382684 0.000000
vn -0.831469 0.555571 0.000000
vn -0.707106 0.707108 0.000000
vn -0.555569 0.831470 0.000000
vn -0.382682 0.923880 0.000000
vn -0.195089 0.980786 0.000000
vn -0.195089 0.980785 0.000000
usemtl Stecca
s off
f 41//47 39//47 43//47
f 38//48 40//48 100//48
f 39//47 101//47 43//47
f 101//47 99//47 43//47
f 99//47 97//47 43//47
f 97//47 95//47 43//47
f 95//47 93//47 43//47
f 93//49 91//49 43//49
f 91//47 89//47 43//47
f 89//50 87//50 43//50
f 87//47 85//47 43//47
f 85//49 83//49 43//49
f 83//47 81//47 43//47
f 63//51 67//51 65//51
f 63//47 69//47 67//47
f 45//47 49//47 47//47
f 45//49 51//49 49//49
f 43//47 51//47 45//47
f 43//47 81//47 51//47
f 69//47 73//47 71//47
f 63//47 73//47 69//47
f 61//47 73//47 63//47
f 61//47 75//47 73//47
f 61//47 77//47 75//47
f 79//47 77//47 61//47
f 81//47 79//47 61//47
f 81//47 61//47 59//47
f 81//47 59//47 57//47
f 81//47 57//47 55//47
f 51//47 81//47 53//47
f 81//47 55//47 53//47
f 40//48 42//48 100//48
f 42//48 44//48 100//48
f 44//48 46//48 100//48
f 46//52 48//52 100//52
f 48//48 50//48 100//48
f 50//48 52//48 100//48
f 52//48 54//48 100//48
f 54//52 56//52 100//52
f 56//53 58//53 100//53
f 58//52 60//52 100//52
f 60//53 62//53 100//53
f 62//54 64//54 66//54
f 100//48 62//48 66//48
f 82//55 78//55 80//55
f 82//52 76//52 78//52
f 82//54 74//54 76//54
f 82//48 72//48 74//48
f 84//48 72//48 82//48
f 86//52 72//52 84//52
f 94//48 90//48 92//48
f 94//55 88//55 90//55
f 96//48 88//48 94//48
f 96//48 86//48 88//48
f 96//48 72//48 86//48
f 96//52 70//52 72//52
f 98//48 100//48 66//48
f 98//48 66//48 68//48
f 96//48 98//48 70//48
f 98//48 68//48 70//48
s 1
f 38//56 39//56 40//57
f 40//57 41//57 42//58
f 42//58 43//58 44//59
f 44//59 45//59 46//60
f 46//60 47//61 48//62
f 48//62 49//63 50//64
f 50//64 51//65 52//66
f 52//66 53//67 54//68
f 54//68 55//68 56//69
f 56//69 57//70 58//71
f 58//71 59//72 60//73
f 60//73 61//73 62//74
f 62//74 63//74 64//75
f 64//75 65//75 66//76
f 66//76 67//76 68//77
f 68//77 69//77 70//78
f 70//78 71//78 72//79
f 72//79 73//79 74//80
f 74//80 75//80 76//81
f 76//81 77//81 78//82
f 78//82 79//82 80//83
f 80//83 81//84 82//85
f 82//85 83//86 84//87
f 84//87 85//87 86//88
f 86//88 87//88 88//89
f 88//89 89//90 90//91
f 90//91 91//91 92//92
f 92//92 93//92 94//93
f 94//93 95//93 96//94
f 96//94 97//94 98//95
f 100//96 101//97 38//56
f 98//95 99//95 100//96
f 39//56 41//57 40//57
f 41//57 43//58 42//58
f 43//58 45//59 44//59
f 45//59 47//61 46//60
f 47//61 49//63 48//62
f 49//63 51//65 50//64
f 51//65 53//67 52//66
f 53//67 55//68 54//68
f 55//68 57//70 56//69
f 57//70 59//72 58//71
f 59//72 61//73 60//73
f 61//73 63//74 62//74
f 63//74 65//75 64//75
f 65//75 67//76 66//76
f 67//76 69//77 68//77
f 69//77 71//78 70//78
f 71//78 73//79 72//79
f 73//79 75//80 74//80
f 75//80 77//81 76//81
f 77//81 79//82 78//82
f 79//82 81//84 80//83
f 81//84 83//86 82//85
f 83//86 85//87 84//87
f 85//87 87//88 86//88
f 87//88 89//90 88//89
f 89//90 91//91 90//91
f 91//91 93//92 92//92
f 93//92 95//93 94//93
f 95//93 97//94 96//94
f 97//94 99//95 98//95
f 101//97 39//56 38//56
f 99//95 101//97 100//96
o Campo
v 0.575000 -0.350000 0.000000
v -0.575000 -0.350000 0.000000
v 0.575000 0.350000 0.020000
v -0.575000 0.350000 0.000000
v 0.575000 -0.350000 0.120000
v -0.575000 -0.350000 0.120000
v 0.575000 0.350000 0.120000
v -0.575000 0.350000 0.120000
v 0.632500 -0.385000 0.120000
v -0.632500 -0.385000 0.120000
v 0.632500 0.385000 0.120000
v -0.632500 0.385000 0.120000
v 0.632500 -0.385000 -0.050000
v -0.632500 -0.385000 -0.050000
v 0.632500 0.385000 -0.050000
v -0.632500 0.385000 -0.050000
vn -0.000000 0.000000 1.000000
vn -1.000000 0.000000 0.000000
vn 1.000000 0.000000 0.000000
vn 0.000000 -1.000000 0.000000
vn 0.000000 1.000000 0.000000
vn 0.000000 0.000000 -1.000000
vn 0.000000 -0.028560 0.999592
vn -0.017389 0.000000 0.999849
usemtl Sponde
s off
f 106//98 110//98 108//98
f 102//99 106//99 108//99
f 105//100 109//100 103//100
f 104//101 108//101 105//101
f 103//102 107//102 102//102
f 109//98 113//98 107//98
f 108//98 112//98 109//98
f 107//98 111//98 106//98
f 110//100 114//100 112//100
f 113//99 117//99 111//99
f 112//102 116//102 113//102
f 111//101 115//101 110//101
f 115//103 117//103 114//103
f 110//98 112//98 108//98
f 104//99 102//99 108//99
f 109//100 107//100 103//100
f 108//101 109//101 105//101
f 107//102 106//102 102//102
f 113//98 111//98 107//98
f 112//98 113//98 109//98
f 111//98 110//98 106//98
f 114//100 116//100 112//100
f 117//99 115//99 111//99
f 116//102 117//102 113//102
f 115//101 114//101 110//101
f 117//103 116//103 114//103
usemtl Fondo_campo
f 103//104 102//104 104//104
f 105//105 103//105 104//105
o Omino_rosso
v -0.006252 0.011708 -0.057678
v -0.006252 0.011708 -0.076013
v -0.006252 -0.011718 -0.076013
v -0.006252 -0.011718 -0.057678
v 0.008998 0.011708 -0.057678
v 0.008998 0.011708 -0.076013
v 0.008998 -0.011718 -0.076013
v 0.008998 -0.011718 -0.057678
v -0.005028 0.008972 -0.057014
v -0.005028 -0.008982 -0.057014
v 0.005027 0.008972 -0.057014
v 0.005027 -0.008982 -0.057014
v -0.006960 0.014601 -0.017561
v -0.006960 -0.014611 -0.017561
v 0.006960 0.014601 -0.017561
v 0.006960 -0.014611 -0.017561
v -0.006673 0.016725 -0.013355
v -0.006673 -0.016735 -0.013355
v 0.006673 0.016725 -0.013355
v 0.006673 -0.016735 -0.013355
v -0.007150 0.016725 0.013490
v -0.007150 -0.016735 0.013490
v 0.007150 0.016725 0.013490
v 0.007150 -0.016735 0.013490
v -0.003922 0.005946 0.020035
v -0.003922 -0.005495 0.020035
v 0.003922 0.005946 0.020035
v 0.003922 -0.005495 0.020035
v -0.004838 0.009251 0.028803
v -0.004838 -0.009261 0.028803
v 0.004838 0.009251 0.028803
v 0.004838 -0.009261 0.028803
v 0.005916 -0.007633 0.036105
v 0.005916 0.007623 0.036105
v -0.005916 -0.007633 0.036105
v -0.005916 0.007623 0.036105
v 0.000000 -0.000005 0.040807
vt 1.791652 0.254946
vt 1.791652 0.849431
vt 1.031791 0.254946
vt 1.626276 0.849432
vt 1.626276 1.609293
vt 1.031791 0.849432
vt 2.286299 0.849432
vt 1.791652 0.849432
vt 1.791652 0.259338
vt 1.626276 1.344079
vt 2.386137 1.344079
vt 2.120137 1.344079
vt 2.614784 1.344079
vt 2.120137 1.933602
vt 2.120137 2.091157
vt 1.626276 2.096247
vt 2.079266 2.000379
vt 0.780331 2.345685
vt 0.197972 2.345685
vt 0.962916 1.068267
vt 2.079266 1.427818
vt 1.626276 1.349169
vt 1.753643 2.003736
vt 2.039210 -0.202707
vt 2.039210 0.248794
vt 1.894896 -0.193392
vt 2.964862 2.597145
vt 2.964862 3.179504
vt 1.687443 2.414560
vt 1.031791 -0.277691
vt 1.031791 -0.603831
vt 2.324258 -0.215011
vt 3.331805 -0.140027
vt 3.331805 0.186113
vt 2.468191 -0.224326
vt 2.468191 -0.657197
vt 3.332134 -0.208859
vt 0.015387 1.068267
vt 1.031791 0.931639
vt 1.687443 3.362088
vt 1.550815 2.345685
vt 2.324258 -0.666512
vt 2.614785 2.270266
vt 2.614785 1.807172
vt 2.919664 1.926812
vt 1.894896 0.239479
vt 1.031791 -0.208859
vt -0.053488 0.931639
vt 1.031791 0.061703
vt 1.550815 3.430963
vt 0.680880 2.345685
vt 2.286299 0.784757
vt 2.286299 0.530344
vt 2.581825 0.500632
vt 3.012047 1.344079
vt 3.012047 1.807173
vt 2.614785 1.456482
vt -0.053488 0.061703
vt 0.296130 -0.153467
vt 0.680880 3.430963
vt 0.465709 2.695302
vt 1.626276 1.673968
vt 1.626276 1.928381
vt 1.328253 1.958093
vt 0.667215 -0.153468
vt 0.789368 -0.436911
vt 0.465709 3.066387
vt 0.182266 3.188541
vt 0.182266 2.588107
vt -0.053488 2.640904
vt 0.188935 -0.436910
vt 0.736571 -0.672664
vt 1.328253 1.644256
vt 1.100457 1.609293
vt 2.581825 0.814469
vt 2.810242 0.465668
vt 2.386137 0.857565
vt 2.586307 1.126661
vt 2.769291 0.853616
vt 2.769291 1.340130
vt 1.031791 1.609293
vt 2.286299 0.259338
vt 2.386137 0.849432
vt 2.614784 1.933601
vt 1.753643 1.431174
vt 3.332134 -0.672664
vt 2.919664 2.180835
vt 2.614785 1.710505
vt -0.053488 3.135743
vt 0.241732 -0.672663
vt 1.100457 1.993056
vt 2.810242 0.849432
vn -1.000000 -0.000001 0.000001
vn 1.000000 0.000001 -0.000001
vn -0.000001 1.000000 -0.000001
vn -0.000001 -0.000000 -1.000000
vn 0.000000 -1.000000 0.000000
vn 0.000001 -0.235854 0.971789
vn 0.998803 0.000001 -0.048923
vn -0.476698 -0.000000 0.879067
vn 0.164964 0.000000 0.986300
vn 0.000001 0.235854 0.971789
vn 0.000000 -0.892680 -0.450691
vn -0.998803 -0.000001 -0.048921
vn -0.000001 0.989974 -0.141249
vn 0.000000 -0.989974 -0.141248
vn -0.000001 1.000000 -0.000000
vn 0.997677 0.000001 0.068125
vn -0.997677 -0.000001 0.068126
vn -0.000001 0.892679 -0.450692
vn 0.000000 0.519047 0.854746
vn 0.999842 0.000001 -0.017762
vn -0.999842 -0.000001 -0.017760
vn -0.000002 0.935735 -0.352705
vn 0.000001 -0.503229 0.864153
vn 0.896876 0.000001 0.442282
vn -0.896876 -0.000001 0.442283
vn -0.000000 -0.918828 -0.394658
vn 0.994587 0.000001 -0.103910
vn -0.994587 -0.000001 -0.103907
vn -0.989278 -0.000001 -0.146046
vn 0.989278 0.000001 -0.146047
vn 0.000001 -0.976040 0.217590
vn -0.000001 0.976040 0.217589
vn -0.622227 -0.000000 0.782837
vn 0.622229 0.000001 0.782836
vn 0.000001 -0.524737 0.851264
vn 0.000001 0.524738 0.851264
vn -0.000000 1.000000 0.000000
vn -0.000001 -0.000001 -1.000000
vn 0.000002 -0.235854 0.971789
vn -0.476695 -0.000000 0.879069
vn 0.164966 0.000000 0.986299
vn 0.000001 0.235855 0.971788
vn -0.000000 -0.892680 -0.450692
vn -0.000002 0.892680 -0.450691
vn 0.000002 0.519046 0.854746
vn 0.896877 0.000001 0.442281
vn 0.994587 0.000000 -0.103909
vn 0.989278 0.000000 -0.146048
vn 0.000001 -0.976040 0.217589
vn -0.000000 0.976040 0.217590
usemtl Rosso
s off
f 118/93/106 119/94/106 121/95/106
f 122/96/107 125/97/107 123/98/107
f 118/99/108 122/100/108 123/101/108
f 119/102/109 123/96/109 120/103/109
f 120/104/110 124/105/110 121/106/110
f 121/107/111 125/108/111 127/109/111
f 129/110/112 128/111/112 133/112/112
f 118/104/113 121/107/113 126/113/113
f 125/108/114 122/114/114 129/115/114
f 122/114/115 118/104/115 126/113/115
f 131/116/116 133/117/116 135/118/116
f 126/119/117 127/120/117 130/121/117
f 128/122/118 126/123/118 132/124/118
f 127/125/119 129/126/119 131/116/119
f 136/127/120 134/128/120 140/129/120
f 133/112/121 132/130/121 137/131/121
f 130/121/122 131/132/122 134/133/122
f 132/124/123 130/134/123 136/127/123
f 140/135/124 138/136/124 142/137/124
f 135/118/110 137/138/110 139/139/110
f 137/131/125 136/140/125 141/141/125
f 134/133/126 135/142/126 138/143/126
f 144/144/127 142/145/127 146/146/127
f 139/147/128 141/148/128 143/149/128
f 141/141/129 140/150/129 144/151/129
f 138/143/130 139/152/130 142/153/130
f 143/154/131 145/155/131 149/156/131
f 145/157/132 144/151/132 149/158/132
f 142/153/133 143/159/133 147/160/133
f 146/161/134 147/160/134 153/162/134
f 149/158/135 148/163/135 150/164/135
f 147/165/136 149/156/136 152/166/136
f 148/167/137 146/146/137 153/168/137
f 153/103/138 152/169/138 154/170/138
f 150/171/139 151/172/139 154/170/139
f 152/169/140 150/171/140 154/170/140
f 151/172/141 153/103/141 154/170/141
f 119/94/106 120/98/106 121/95/106
f 125/97/107 124/173/107 123/98/107
f 119/174/142 118/99/142 123/101/142
f 123/96/143 124/175/143 120/103/143
f 124/105/110 125/176/110 121/106/110
f 125/108/144 129/115/144 127/109/144
f 128/111/112 132/130/112 133/112/112
f 121/107/145 127/109/145 126/113/145
f 122/114/146 128/177/146 129/115/146
f 128/177/147 122/114/147 126/113/147
f 133/117/148 137/138/148 135/118/148
f 127/120/117 131/132/117 130/121/117
f 126/123/118 130/134/118 132/124/118
f 129/126/119 133/117/119 131/116/119
f 134/128/120 138/178/120 140/129/120
f 132/130/121 136/140/121 137/131/121
f 131/132/122 135/142/122 134/133/122
f 130/134/149 134/128/149 136/127/149
f 144/179/150 140/135/150 142/137/150
f 137/138/110 141/95/110 139/139/110
f 136/140/125 140/150/125 141/141/125
f 135/142/126 139/152/126 138/143/126
f 148/167/127 144/144/127 146/146/127
f 141/148/128 145/180/128 143/149/128
f 145/157/151 141/141/151 144/151/151
f 139/152/130 143/159/130 142/153/130
f 147/165/131 143/154/131 149/156/131
f 144/151/152 148/163/152 149/158/152
f 146/161/133 142/153/133 147/160/133
f 147/160/134 152/181/134 153/162/134
f 148/163/153 151/182/153 150/164/153
f 149/156/154 150/183/154 152/166/154
f 151/184/155 148/167/155 153/168/155
