# Blender v2.69 (sub 0) OBJ File: 'omino.blend'
# www.blender.org
mtllib omino.mtl
o Campo
v 5.750000 -3.500000 0.000000
v -5.750000 -3.500000 0.000000
v 5.750000 3.500000 0.000000
v -5.750000 3.500000 0.000000
v 5.750000 -3.500000 1.000000
v -5.750000 -3.500000 1.000000
v 5.750000 3.500000 1.000000
v -5.750000 3.500000 1.000000
v 6.325000 -3.850000 1.000000
v -6.325000 -3.850000 1.000000
v 6.325000 3.850000 1.000000
v -6.325000 3.850000 1.000000
v 6.325000 -3.850000 -0.500000
v -6.325000 -3.850000 -0.500000
v 6.325000 3.850000 -0.500000
v -6.325000 3.850000 -0.500000
vn 0.000000 0.000000 1.000000
vn -1.000000 0.000000 0.000000
vn 1.000000 0.000000 0.000000
vn 0.000000 -1.000000 0.000000
vn 0.000000 1.000000 0.000000
vn 0.000000 0.000000 -1.000000
usemtl Sponde
s off
f 5//1 9//1 7//1
f 1//2 5//2 3//2
f 4//3 8//3 2//3
f 3//4 7//4 4//4
f 2//5 6//5 1//5
f 8//1 12//1 6//1
f 7//1 11//1 8//1
f 6//1 10//1 5//1
f 9//3 13//3 11//3
f 12//2 16//2 10//2
f 11//5 15//5 12//5
f 10//4 14//4 9//4
f 14//6 16//6 13//6
f 9//1 11//1 7//1
f 5//2 7//2 3//2
f 8//3 6//3 2//3
f 7//4 8//4 4//4
f 6//5 5//5 1//5
f 12//1 10//1 6//1
f 11//1 12//1 8//1
f 10//1 9//1 5//1
f 13//3 15//3 11//3
f 16//2 14//2 10//2
f 15//5 16//5 12//5
f 14//4 13//4 9//4
f 16//6 15//6 13//6
usemtl Fondo_campo
f 2//1 1//1 4//1
f 1//1 3//1 4//1
o Omino
v 0.207112 -1.020281 -0.110595
v 0.207112 -1.344621 -0.110595
v -0.207289 -1.344621 -0.110595
v -0.207289 -1.020281 -0.110595
v 0.207112 -1.020281 0.159168
v 0.207112 -1.344621 0.159168
v -0.207289 -1.344621 0.159168
v -0.207289 -1.020281 0.159168
v 0.158710 -1.008534 -0.088933
v -0.158888 -1.008534 -0.088933
v 0.158710 -1.008534 0.088933
v -0.158888 -1.008534 0.088933
v 0.258286 -0.310636 -0.123116
v -0.258463 -0.310636 -0.123116
v 0.258286 -0.310636 0.123117
v -0.258463 -0.310636 0.123117
v 0.295848 -0.236237 -0.118036
v -0.296025 -0.236237 -0.118036
v 0.295848 -0.236237 0.118036
v -0.296025 -0.236237 0.118036
v 0.295848 0.238621 -0.126471
v -0.296025 0.238621 -0.126471
v 0.295848 0.238621 0.126472
v -0.296025 0.238621 0.126472
v 0.105179 0.354406 -0.069374
v -0.097198 0.354406 -0.069374
v 0.105179 0.354405 0.069374
v -0.097198 0.354406 0.069374
v 0.163639 0.509503 -0.085577
v -0.163816 0.509503 -0.085577
v 0.163639 0.509503 0.085578
v -0.163816 0.509503 0.085578
v -0.135022 0.638663 0.104646
v 0.134846 0.638663 0.104646
v -0.135022 0.638663 -0.104645
v 0.134846 0.638663 -0.104645
v -0.000088 0.721839 0.000000
vt 1.791652 0.254946
vt 1.791652 0.849431
vt 1.031791 0.254946
vt 1.626276 0.849432
vt 1.626276 1.609293
vt 1.031791 0.849432
vt 2.286299 0.849432
vt 1.791652 0.849432
vt 1.791652 0.259338
vt 1.626276 1.344079
vt 2.386137 1.344079
vt 2.120137 1.344079
vt 2.614784 1.344079
vt 2.120137 1.933602
vt 2.120137 2.091157
vt 1.626276 2.096247
vt 2.079266 2.000379
vt 0.780331 2.345685
vt 0.197972 2.345685
vt 0.962916 1.068267
vt 2.079266 1.427818
vt 1.626276 1.349169
vt 1.753643 2.003736
vt 2.039210 -0.202707
vt 2.039210 0.248794
vt 1.894896 -0.193392
vt 2.964862 2.597145
vt 2.964862 3.179504
vt 1.687443 2.414560
vt 1.031791 -0.277691
vt 1.031791 -0.603831
vt 2.324258 -0.215011
vt 3.331805 -0.140027
vt 3.331805 0.186113
vt 2.468191 -0.224326
vt 2.468191 -0.657197
vt 3.332134 -0.208859
vt 0.015387 1.068267
vt 1.031791 0.931639
vt 1.687443 3.362088
vt 1.550815 2.345685
vt 2.324258 -0.666512
vt 2.614785 2.270266
vt 2.614785 1.807172
vt 2.919664 1.926812
vt 1.894896 0.239479
vt 1.031791 -0.208859
vt -0.053488 0.931639
vt 1.031791 0.061703
vt 1.550815 3.430963
vt 0.680880 2.345685
vt 2.286299 0.784757
vt 2.286299 0.530344
vt 2.581825 0.500632
vt 3.012047 1.344079
vt 3.012047 1.807173
vt 2.614785 1.456482
vt -0.053488 0.061703
vt 0.296130 -0.153467
vt 0.680880 3.430963
vt 0.465709 2.695302
vt 1.626276 1.673968
vt 1.626276 1.928381
vt 1.328253 1.958093
vt 0.667215 -0.153468
vt 0.789368 -0.436911
vt 0.465709 3.066387
vt 0.182266 3.188541
vt 0.182266 2.588107
vt -0.053488 2.640904
vt 0.188935 -0.436910
vt 0.736571 -0.672664
vt 1.328253 1.644256
vt 1.100457 1.609293
vt 2.581825 0.814469
vt 2.810242 0.465668
vt 2.386137 0.857565
vt 2.586307 1.126661
vt 2.769291 0.853616
vt 2.769291 1.340130
vt 1.031791 1.609293
vt 2.286299 0.259338
vt 2.386137 0.849432
vt 2.614784 1.933601
vt 1.753643 1.431174
vt 3.332134 -0.672664
vt 2.919664 2.180835
vt 2.614785 1.710505
vt -0.053488 3.135743
vt 0.241732 -0.672663
vt 1.100457 1.993056
vt 2.810242 0.849432
vn 0.000000 0.000000 -1.000000
vn 0.000000 0.000000 1.000000
vn 1.000000 -0.000001 -0.000000
vn 0.000000 -1.000000 0.000000
vn -1.000000 0.000000 -0.000000
vn -0.235853 0.971789 0.000000
vn -0.000000 -0.048922 0.998803
vn 0.000000 0.879068 -0.476697
vn 0.000001 0.986300 0.164964
vn 0.235854 0.971789 0.000001
vn -0.892680 -0.450691 -0.000000
vn 0.000000 -0.048922 -0.998803
vn 0.989974 -0.141249 -0.000000
vn -0.989974 -0.141248 -0.000000
vn 1.000000 -0.000000 -0.000001
vn 0.000000 0.068126 0.997677
vn 0.000000 0.068125 -0.997677
vn 0.892679 -0.450693 -0.000001
vn 0.519047 0.854746 0.000000
vn 0.000000 -0.017761 0.999842
vn 0.000000 -0.017761 -0.999842
vn 0.935735 -0.352705 -0.000001
vn -0.503229 0.864153 -0.000000
vn 0.000000 0.442283 0.896876
vn 0.000000 0.442282 -0.896876
vn -0.918828 -0.394658 -0.000000
vn -0.000000 -0.103909 0.994587
vn 0.000000 -0.103907 -0.994587
vn 0.000000 -0.146047 -0.989278
vn -0.000000 -0.146047 0.989278
vn -0.976040 0.217590 -0.000000
vn 0.976040 0.217589 -0.000000
vn 0.000000 0.782836 -0.622228
vn 0.000001 0.782837 0.622228
vn -0.524737 0.851264 0.000000
vn 0.524738 0.851264 0.000001
vn 1.000000 0.000000 0.000001
vn -0.000001 -1.000000 -0.000001
vn 0.000000 0.879069 -0.476694
vn 0.000000 0.986300 0.164965
vn 0.235855 0.971788 0.000001
vn -0.892680 -0.450692 -0.000000
vn 0.000000 0.068125 0.997677
vn 0.892680 -0.450691 -0.000001
vn 0.519046 0.854747 0.000002
vn 0.000001 0.442280 0.896877
vn 0.976040 0.217590 -0.000000
usemtl Rosso
s off
f 17/1/7 18/2/7 20/3/7
f 21/4/8 24/5/8 22/6/8
f 17/7/9 21/8/9 22/9/9
f 18/10/10 22/4/10 19/11/10
f 19/12/11 23/13/11 20/14/11
f 20/15/12 24/16/12 26/17/12
f 28/18/13 27/19/13 32/20/13
f 17/12/14 20/15/14 25/21/14
f 24/16/15 21/22/15 28/23/15
f 21/22/16 17/12/16 25/21/16
f 30/24/17 32/25/17 34/26/17
f 25/27/18 26/28/18 29/29/18
f 27/30/19 25/31/19 31/32/19
f 26/33/20 28/34/20 30/24/20
f 35/35/21 33/36/21 39/37/21
f 32/20/22 31/38/22 36/39/22
f 29/29/23 30/40/23 33/41/23
f 31/32/24 29/42/24 35/35/24
f 39/43/25 37/44/25 41/45/25
f 34/26/11 36/46/11 38/47/11
f 36/39/26 35/48/26 40/49/26
f 33/41/27 34/50/27 37/51/27
f 43/52/28 41/53/28 45/54/28
f 38/55/29 40/56/29 42/57/29
f 40/49/30 39/58/30 43/59/30
f 37/51/31 38/60/31 41/61/31
f 42/62/32 44/63/32 48/64/32
f 44/65/33 43/59/33 48/66/33
f 41/61/34 42/67/34 46/68/34
f 45/69/35 46/68/35 52/70/35
f 48/66/36 47/71/36 49/72/36
f 46/73/37 48/64/37 51/74/37
f 47/75/38 45/54/38 52/76/38
f 52/11/39 51/77/39 53/78/39
f 49/79/40 50/80/40 53/78/40
f 51/77/41 49/79/41 53/78/41
f 50/80/42 52/11/42 53/78/42
f 18/2/7 19/6/7 20/3/7
f 24/5/8 23/81/8 22/6/8
f 18/82/43 17/7/43 22/9/43
f 22/4/44 23/83/44 19/11/44
f 23/13/11 24/84/11 20/14/11
f 24/16/12 28/23/12 26/17/12
f 27/19/13 31/38/13 32/20/13
f 20/15/45 26/17/45 25/21/45
f 21/22/46 27/85/46 28/23/46
f 27/85/47 21/22/47 25/21/47
f 32/25/48 36/46/48 34/26/48
f 26/28/18 30/40/18 29/29/18
f 25/31/19 29/42/19 31/32/19
f 28/34/20 32/25/20 30/24/20
f 33/36/21 37/86/21 39/37/21
f 31/38/49 35/48/49 36/39/49
f 30/40/23 34/50/23 33/41/23
f 29/42/50 33/36/50 35/35/50
f 43/87/51 39/43/51 41/45/51
f 36/46/11 40/3/11 38/47/11
f 35/48/26 39/58/26 40/49/26
f 34/50/27 38/60/27 37/51/27
f 47/75/28 43/52/28 45/54/28
f 40/56/29 44/88/29 42/57/29
f 44/65/52 40/49/52 43/59/52
f 38/60/31 42/67/31 41/61/31
f 46/73/32 42/62/32 48/64/32
f 43/59/33 47/71/33 48/66/33
f 45/69/34 41/61/34 46/68/34
f 46/68/35 51/89/35 52/70/35
f 47/71/36 50/90/36 49/72/36
f 48/64/37 49/91/37 51/74/37
f 50/92/53 47/75/53 52/76/53
